# xmcd
#
# Track frame offsets:
#  150
#  18921
#  32633
#  45681
#  62635
#  72061
#  86538
#  102076
#  117349
#  134558
#  152931
#  167713
#  186922
#  199341
#  214442
#  227456
#
# Disc length: 3315 seconds
#
# Revision: 0
# Processed by: cddbd v1.5.1PL2 Copyright (c) Steve Scherf et al.
# Submitted via: AltoMP3_Maker 3.0
#
DISCID=df0cf110
DTITLE=Homestead Pickers - Homestead Pickers "On My Father's Side"
DYEAR=1900
DGENRE=
TTITLE0=On My Father's Side
TTITLE1=Land Where No Cabins Fall
TTITLE2=Angel Band
TTITLE3=He Touched Me
TTITLE4=Hallelujah, I'm Ready
TTITLE5=Vacation in Heaven
TTITLE6=The Old Rugged Cross
TTITLE7=Hear The Christ Child Crying
TTITLE8=Uncle Jesse
TTITLE9=Swing Low Sweet Chariot
TTITLE10=Land Beyond The Blue
TTITLE11=Gabriel's Gathering
TTITLE12=I'll Fly Away
TTITLE13=Patiently Waiting
TTITLE14=Behind The Sun
TTITLE15=Shamus - Ar Eireann Ni Neosainn Ce Hi
EXTD=
EXTT0=
EXTT1=
EXTT2=
EXTT3=
EXTT4=
EXTT5=
EXTT6=
EXTT7=
EXTT8=
EXTT9=
EXTT10=
EXTT11=
EXTT12=
EXTT13=
EXTT14=
EXTT15=
PLAYORDER=
